<?xml version="1.0" encoding="utf-8"?>
<!-- Generator: Adobe Illustrator 20.1.0, SVG Export Plug-In . SVG Version: 6.00 Build 0)  -->
<svg version="1.1" id="Layer_2" xmlns="http://www.w3.org/2000/svg" xmlns:xlink="http://www.w3.org/1999/xlink" x="0px" y="0px"
	 viewBox="0 0 180 29.7" style="enable-background:new 0 0 180 29.7;" xml:space="preserve">
<style type="text/css">
	.st0{fill:#000066;}
</style>
<g>
	<g>
		<path class="st0" d="M19.6,3.8H30c0.9,0,1.8,0.1,2.7,0.4c0.8,0.2,1.6,0.6,2.2,1.1C35.5,5.7,36,6.3,36.4,7C36.8,7.8,37,8.7,37,9.7
			c0,1.5-0.4,2.7-1.1,3.8s-1.9,1.7-3.3,2v0.1c0.7,0.1,1.4,0.3,1.9,0.6s0.9,0.7,1.2,1.1c0.3,0.4,0.5,1,0.7,1.6
			c0.1,0.6,0.2,1.2,0.3,1.9c0,0.4,0,0.9,0.1,1.4s0.1,1.1,0.1,1.7s0.2,1.1,0.3,1.6c0.1,0.5,0.3,0.9,0.6,1.2h-2.4
			c-0.1-0.2-0.2-0.5-0.3-0.8s-0.1-0.6-0.2-1c0-0.3-0.1-0.7-0.1-1c0-0.3,0-0.6-0.1-0.8c0-0.8-0.1-1.6-0.2-2.4
			c-0.1-0.8-0.3-1.5-0.6-2.1c-0.3-0.6-0.8-1.1-1.3-1.5c-0.6-0.4-1.4-0.6-2.4-0.5h-8.3v10.1h-2.2V3.8z M21.7,14.6h8.1
			c0.7,0,1.3-0.1,1.9-0.3c0.6-0.2,1.1-0.5,1.6-0.9c0.4-0.4,0.8-0.8,1.1-1.4s0.4-1.2,0.4-1.9c0-1.4-0.4-2.5-1.2-3.3s-2-1.2-3.7-1.2
			h-8.1V14.6z"/>
		<path class="st0" d="M37.9,26.7h-2.7l0-0.1c-0.1-0.2-0.2-0.5-0.3-0.8c-0.1-0.3-0.1-0.6-0.2-1c0-0.3-0.1-0.7-0.1-1
			c0-0.3,0-0.6-0.1-0.8c0-0.8-0.1-1.6-0.2-2.4c-0.1-0.8-0.3-1.5-0.6-2.1c-0.3-0.6-0.7-1.1-1.3-1.5c-0.6-0.4-1.3-0.5-2.3-0.5h-8.1
			v10.1h-2.4V3.6H30c0.9,0,1.9,0.1,2.7,0.4c0.9,0.2,1.6,0.6,2.2,1.1c0.6,0.5,1.2,1.1,1.5,1.9c0.4,0.8,0.6,1.7,0.6,2.7
			c0,1.5-0.4,2.8-1.1,3.8c-0.7,1-1.7,1.6-3,2c0.6,0.1,1.1,0.3,1.5,0.5c0.5,0.3,0.9,0.7,1.2,1.1c0.3,0.5,0.5,1,0.7,1.6
			c0.1,0.6,0.2,1.2,0.3,1.9c0,0.4,0,0.9,0.1,1.4c0,0.6,0.1,1.1,0.1,1.7c0.1,0.6,0.2,1.1,0.3,1.6c0.1,0.5,0.3,0.9,0.5,1.1L37.9,26.7z
			 M35.3,26.5h2.1c-0.2-0.3-0.3-0.6-0.4-1c-0.1-0.5-0.2-1-0.3-1.6c-0.1-0.6-0.1-1.1-0.1-1.7c0-0.6,0-1-0.1-1.4
			c0-0.7-0.1-1.3-0.3-1.9c-0.1-0.6-0.4-1.1-0.7-1.5c-0.3-0.4-0.7-0.8-1.2-1.1c-0.5-0.3-1.1-0.5-1.8-0.6l-0.1,0v-0.3l0.1,0
			c1.4-0.3,2.5-1,3.3-2c0.7-1,1.1-2.3,1.1-3.7c0-1-0.2-1.9-0.5-2.6c-0.4-0.7-0.9-1.3-1.5-1.8c-0.6-0.5-1.3-0.8-2.2-1
			C31.8,4,31,3.9,30,3.9H19.7v22.6h1.9V16.3H30c1,0,1.9,0.1,2.5,0.5c0.6,0.4,1.1,0.9,1.4,1.6c0.3,0.6,0.5,1.4,0.6,2.2
			c0.1,0.8,0.2,1.6,0.2,2.4c0,0.2,0,0.5,0.1,0.8c0,0.3,0,0.6,0.1,1c0,0.3,0.1,0.6,0.2,0.9C35.1,26.1,35.2,26.3,35.3,26.5z
			 M29.9,14.7h-8.3V5.5h8.3c1.7,0,3,0.4,3.8,1.3s1.3,2,1.3,3.4c0,0.7-0.1,1.4-0.4,1.9c-0.3,0.6-0.6,1-1.1,1.4
			c-0.5,0.4-1,0.7-1.6,0.9C31.2,14.6,30.5,14.7,29.9,14.7z M21.9,14.5h8c0.6,0,1.3-0.1,1.8-0.3c0.6-0.2,1.1-0.5,1.5-0.9
			c0.4-0.4,0.8-0.8,1-1.4c0.3-0.5,0.4-1.1,0.4-1.8c0-1.4-0.4-2.5-1.2-3.2c-0.8-0.8-2-1.2-3.6-1.2h-8V14.5z"/>
	</g>
	<g>
		<path class="st0" d="M57.6,10.7c-0.2-0.9-0.5-1.7-0.9-2.4c-0.4-0.7-1-1.3-1.6-1.7c-0.6-0.5-1.3-0.8-2.1-1.1s-1.6-0.4-2.4-0.4
			c-1.5,0-2.8,0.3-3.9,0.9s-2,1.3-2.7,2.3c-0.7,0.9-1.2,2-1.5,3.2c-0.3,1.2-0.5,2.4-0.5,3.7c0,1.2,0.2,2.5,0.5,3.7s0.8,2.3,1.5,3.2
			c0.7,0.9,1.6,1.7,2.7,2.3c1.1,0.6,2.4,0.9,3.9,0.9c1.1,0,2-0.2,2.9-0.6s1.6-0.9,2.2-1.6s1.1-1.4,1.5-2.3c0.4-0.9,0.6-1.8,0.7-2.9
			h2.2c-0.1,1.4-0.5,2.7-1,3.8c-0.5,1.1-1.2,2.1-2,2.9c-0.8,0.8-1.8,1.4-2.9,1.8C53.2,26.8,52,27,50.6,27c-1.8,0-3.4-0.3-4.7-1
			c-1.4-0.7-2.5-1.5-3.4-2.6s-1.6-2.3-2-3.8c-0.4-1.4-0.7-2.9-0.7-4.5c0-1.6,0.2-3.1,0.7-4.5c0.4-1.4,1.1-2.7,2-3.8s2-2,3.4-2.6
			c1.4-0.7,2.9-1,4.7-1c1.1,0,2.1,0.2,3.2,0.5c1,0.3,2,0.8,2.8,1.4c0.8,0.6,1.5,1.4,2.1,2.3c0.6,0.9,0.9,2,1.1,3.2H57.6z"/>
		<path class="st0" d="M50.6,27.2c-1.8,0-3.4-0.3-4.8-1c-1.4-0.7-2.5-1.5-3.4-2.6c-0.9-1.1-1.6-2.4-2-3.8c-0.4-1.4-0.7-3-0.7-4.5
			c0-1.6,0.2-3.1,0.7-4.5c0.5-1.4,1.1-2.7,2-3.8c0.9-1.1,2.1-2,3.4-2.7c1.4-0.7,3-1,4.8-1c1.1,0,2.2,0.2,3.2,0.5
			c1,0.3,2,0.8,2.9,1.4c0.9,0.6,1.6,1.4,2.1,2.4c0.6,0.9,0.9,2,1.1,3.2l0,0.1h-2.4l0-0.1c-0.2-0.9-0.5-1.6-0.9-2.3
			c-0.4-0.7-1-1.3-1.6-1.7c-0.6-0.5-1.3-0.8-2-1.1c-0.7-0.2-1.5-0.4-2.3-0.4c-1.5,0-2.8,0.3-3.8,0.8c-1.1,0.6-2,1.3-2.6,2.3
			c-0.7,0.9-1.2,2-1.5,3.2c-0.3,1.2-0.5,2.4-0.5,3.6c0,1.2,0.2,2.4,0.5,3.6c0.3,1.2,0.8,2.3,1.5,3.2c0.7,0.9,1.6,1.7,2.6,2.3
			c1.1,0.6,2.4,0.8,3.8,0.8c1,0,2-0.2,2.8-0.6c0.8-0.4,1.6-0.9,2.2-1.5c0.6-0.6,1.1-1.4,1.5-2.3c0.4-0.9,0.6-1.8,0.7-2.8l0-0.1h2.4
			l0,0.1c-0.2,1.4-0.5,2.7-1,3.8c-0.5,1.1-1.2,2.1-2,2.9c-0.8,0.8-1.8,1.4-2.9,1.8C53.2,27,52,27.2,50.6,27.2z M50.6,3.4
			c-1.8,0-3.3,0.3-4.7,1C44.6,5,43.5,5.9,42.6,7c-0.9,1.1-1.6,2.3-2,3.8c-0.4,1.4-0.7,2.9-0.7,4.5c0,1.6,0.2,3.1,0.7,4.5
			c0.4,1.4,1.1,2.7,2,3.7c0.9,1.1,2,1.9,3.3,2.6c1.3,0.6,2.9,1,4.7,1c1.3,0,2.5-0.2,3.6-0.6c1.1-0.4,2-1,2.8-1.8
			c0.8-0.8,1.5-1.7,2-2.8c0.5-1.1,0.8-2.3,1-3.6h-1.9c-0.1,1-0.4,1.9-0.7,2.8c-0.4,0.9-0.9,1.7-1.5,2.4c-0.6,0.7-1.4,1.2-2.2,1.6
			c-0.9,0.4-1.9,0.6-2.9,0.6c-1.5,0-2.9-0.3-4-0.9c-1.1-0.6-2-1.4-2.7-2.3c-0.7-1-1.2-2.1-1.6-3.3c-0.3-1.2-0.5-2.5-0.5-3.7
			c0-1.3,0.2-2.5,0.5-3.7c0.3-1.2,0.9-2.3,1.6-3.3c0.7-1,1.6-1.7,2.7-2.3c1.1-0.6,2.4-0.9,4-0.9c0.8,0,1.7,0.1,2.4,0.4
			c0.8,0.2,1.5,0.6,2.1,1.1c0.6,0.5,1.2,1.1,1.6,1.8c0.4,0.7,0.7,1.4,0.9,2.3h1.9c-0.2-1.1-0.5-2.1-1-3c-0.6-0.9-1.3-1.7-2.1-2.3
			c-0.8-0.6-1.8-1.1-2.8-1.4C52.7,3.6,51.7,3.4,50.6,3.4z"/>
	</g>
	<g>
		<path class="st0" d="M64.5,19.1c0,1.2,0.2,2.2,0.5,2.9c0.4,0.8,0.9,1.4,1.6,1.9c0.7,0.5,1.5,0.8,2.4,1c0.9,0.2,1.9,0.3,2.9,0.3
			c0.6,0,1.2-0.1,2-0.3c0.7-0.2,1.4-0.4,2-0.8c0.6-0.4,1.1-0.9,1.5-1.4s0.6-1.3,0.6-2.1c0-0.6-0.1-1.2-0.4-1.7
			c-0.3-0.5-0.7-0.9-1.1-1.2s-1-0.6-1.5-0.8c-0.6-0.2-1.1-0.4-1.6-0.5l-5.1-1.2c-0.7-0.2-1.3-0.4-1.9-0.6s-1.2-0.6-1.6-1
			c-0.5-0.4-0.8-0.9-1.1-1.6c-0.3-0.6-0.4-1.4-0.4-2.3c0-0.6,0.1-1.2,0.3-2C63.6,7,64,6.3,64.5,5.6C65.1,5,65.9,4.4,67,4
			c1-0.5,2.3-0.7,3.9-0.7c1.1,0,2.2,0.1,3.2,0.4c1,0.3,1.9,0.7,2.7,1.3c0.8,0.6,1.4,1.3,1.8,2.2c0.5,0.9,0.7,1.9,0.7,3.1h-2.2
			c0-0.9-0.2-1.6-0.6-2.3s-0.8-1.2-1.4-1.6s-1.2-0.8-2-1c-0.7-0.2-1.5-0.3-2.3-0.3c-0.7,0-1.5,0.1-2.2,0.2s-1.3,0.4-1.8,0.8
			C66.4,6.5,66,7,65.7,7.5c-0.3,0.6-0.5,1.3-0.5,2.1c0,0.5,0.1,1,0.3,1.4c0.2,0.4,0.4,0.7,0.8,1c0.3,0.3,0.7,0.5,1.1,0.7
			c0.4,0.2,0.9,0.3,1.3,0.4l5.6,1.4c0.8,0.2,1.6,0.5,2.3,0.8c0.7,0.3,1.3,0.7,1.9,1.2c0.5,0.5,1,1,1.3,1.7c0.3,0.7,0.5,1.5,0.5,2.4
			c0,0.3,0,0.6-0.1,1c-0.1,0.4-0.2,0.9-0.4,1.4c-0.2,0.5-0.5,1-0.9,1.5c-0.4,0.5-0.9,0.9-1.5,1.3c-0.7,0.4-1.5,0.7-2.4,1
			S72.8,27,71.4,27c-1.3,0-2.6-0.2-3.7-0.5c-1.2-0.3-2.1-0.8-2.9-1.4c-0.8-0.6-1.4-1.5-1.9-2.5c-0.4-1-0.6-2.2-0.6-3.6H64.5z"/>
		<path class="st0" d="M71.4,27.2c-1.3,0-2.6-0.2-3.8-0.5c-1.2-0.3-2.2-0.8-3-1.4c-0.8-0.7-1.5-1.5-1.9-2.5c-0.4-1-0.6-2.3-0.6-3.7
			l0-0.1h2.4l0,0.1c0,1.1,0.2,2.1,0.5,2.9c0.4,0.8,0.9,1.4,1.5,1.8c0.7,0.5,1.4,0.8,2.3,1c0.9,0.2,1.9,0.3,2.9,0.3
			c0.6,0,1.2-0.1,1.9-0.3c0.7-0.2,1.3-0.4,1.9-0.8c0.6-0.4,1.1-0.8,1.5-1.4c0.4-0.6,0.6-1.3,0.6-2.1c0-0.6-0.1-1.2-0.4-1.6
			c-0.3-0.5-0.6-0.8-1.1-1.1c-0.4-0.3-0.9-0.6-1.5-0.8c-0.6-0.2-1.1-0.4-1.6-0.5l-5.1-1.2c-0.7-0.2-1.3-0.4-2-0.6
			c-0.6-0.3-1.2-0.6-1.7-1c-0.5-0.4-0.9-1-1.2-1.6c-0.3-0.6-0.4-1.4-0.4-2.3c0-0.6,0.1-1.2,0.3-2c0.2-0.8,0.6-1.5,1.2-2.2
			c0.6-0.7,1.4-1.2,2.5-1.7c1-0.5,2.4-0.7,4-0.7c1.1,0,2.2,0.2,3.3,0.5c1,0.3,2,0.8,2.7,1.4c0.8,0.6,1.4,1.4,1.9,2.3
			c0.5,0.9,0.7,2,0.7,3.1v0.1h-2.4l0-0.1c0-0.9-0.2-1.6-0.6-2.2c-0.3-0.6-0.8-1.2-1.3-1.6c-0.5-0.4-1.2-0.8-1.9-1
			c-1.4-0.4-3-0.4-4.4-0.1c-0.7,0.2-1.3,0.4-1.8,0.7c-0.5,0.3-0.9,0.8-1.2,1.3c-0.3,0.6-0.5,1.3-0.5,2.1c0,0.5,0.1,1,0.3,1.3
			c0.2,0.4,0.4,0.7,0.7,1c0.3,0.3,0.7,0.5,1.1,0.7c0.4,0.2,0.8,0.3,1.3,0.4l5.6,1.4c0.8,0.2,1.6,0.5,2.3,0.8
			c0.7,0.3,1.4,0.7,1.9,1.2c0.6,0.5,1,1,1.3,1.7c0.3,0.7,0.5,1.5,0.5,2.5c0,0.3,0,0.6-0.1,1C80.1,22,80,22.5,79.8,23
			c-0.2,0.5-0.5,1-0.9,1.5c-0.4,0.5-0.9,1-1.6,1.4c-0.7,0.4-1.5,0.7-2.5,1C73.9,27,72.8,27.2,71.4,27.2z M62.4,19.2
			c0,1.3,0.1,2.5,0.6,3.4c0.4,1,1,1.8,1.8,2.4c0.8,0.6,1.8,1.1,2.9,1.4c1.1,0.3,2.4,0.5,3.7,0.5c1.3,0,2.5-0.1,3.4-0.4
			c0.9-0.2,1.7-0.6,2.4-0.9c0.6-0.4,1.1-0.8,1.5-1.3c0.4-0.5,0.7-1,0.8-1.4c0.2-0.5,0.3-0.9,0.4-1.3c0.1-0.4,0.1-0.8,0.1-1
			c0-0.9-0.2-1.7-0.5-2.3c-0.3-0.6-0.7-1.2-1.2-1.6c-0.5-0.4-1.2-0.8-1.9-1.1c-0.7-0.3-1.5-0.6-2.3-0.8l-5.6-1.4
			c-0.5-0.1-0.9-0.2-1.3-0.4c-0.4-0.2-0.8-0.4-1.1-0.7c-0.3-0.3-0.6-0.6-0.8-1.1c-0.2-0.4-0.3-0.9-0.3-1.4c0-0.9,0.2-1.6,0.5-2.2
			c0.3-0.6,0.8-1.1,1.3-1.4c0.5-0.4,1.2-0.6,1.9-0.8c1.5-0.3,3.1-0.3,4.5,0.1c0.7,0.2,1.4,0.6,2,1c0.6,0.4,1.1,1,1.4,1.7
			c0.3,0.6,0.5,1.4,0.6,2.2h1.9c0-1.1-0.2-2.1-0.7-2.9c-0.4-0.9-1.1-1.6-1.8-2.2c-0.8-0.6-1.6-1-2.6-1.3c-1-0.3-2.1-0.4-3.2-0.4
			c-1.6,0-2.9,0.2-3.9,0.7c-1,0.4-1.8,1-2.4,1.6c-0.6,0.6-1,1.3-1.2,2.1c-0.2,0.7-0.3,1.4-0.3,1.9c0,0.9,0.1,1.6,0.4,2.2
			c0.3,0.6,0.7,1.1,1.1,1.5c0.5,0.4,1,0.8,1.6,1c0.6,0.3,1.3,0.5,1.9,0.6l5.1,1.2c0.5,0.1,1.1,0.3,1.6,0.5c0.6,0.2,1.1,0.5,1.5,0.8
			c0.5,0.3,0.9,0.7,1.2,1.2c0.3,0.5,0.5,1.1,0.5,1.7c0,0.9-0.2,1.6-0.6,2.2c-0.4,0.6-0.9,1.1-1.6,1.5c-0.6,0.4-1.3,0.7-2,0.8
			c-0.7,0.2-1.4,0.3-2,0.3c-1,0-2-0.1-3-0.3c-0.9-0.2-1.7-0.6-2.4-1c-0.7-0.5-1.2-1.1-1.6-1.9c-0.4-0.8-0.6-1.7-0.6-2.9H62.4z"/>
	</g>
	<g>
		<path class="st0" d="M90.1,3.8h18.1v1.9h-8v21H98v-21h-7.9V3.8z"/>
		<path class="st0" d="M100.3,26.7h-2.4v-21h-7.9V3.6h18.3v2.1h-8V26.7z M98.1,26.5h1.9v-21h8V3.9H90.2v1.6h7.9V26.5z"/>
	</g>
	<g>
		<path class="st0" d="M113.3,9.6c1.3,0,2.4,0.2,3.3,0.7c1,0.5,1.8,1.1,2.4,1.9c0.7,0.8,1.2,1.7,1.5,2.8c0.3,1.1,0.5,2.2,0.5,3.4
			c0,1.2-0.2,2.3-0.5,3.4c-0.3,1.1-0.8,2-1.5,2.8c-0.7,0.8-1.5,1.4-2.4,1.9c-1,0.5-2.1,0.7-3.3,0.7c-1.3,0-2.4-0.2-3.3-0.7
			c-1-0.5-1.8-1.1-2.4-1.9c-0.7-0.8-1.2-1.7-1.5-2.8c-0.3-1.1-0.5-2.2-0.5-3.4c0-1.2,0.2-2.3,0.5-3.4c0.3-1.1,0.8-2,1.5-2.8
			c0.7-0.8,1.5-1.4,2.4-1.9C111,9.8,112.1,9.6,113.3,9.6z M113.3,11.3c-1,0-1.8,0.2-2.5,0.6s-1.3,0.9-1.8,1.6
			c-0.5,0.7-0.8,1.4-1.1,2.3s-0.4,1.7-0.4,2.6c0,0.9,0.1,1.7,0.4,2.6s0.6,1.6,1.1,2.3c0.5,0.7,1.1,1.2,1.8,1.6s1.6,0.6,2.5,0.6
			s1.8-0.2,2.5-0.6s1.3-0.9,1.8-1.6c0.5-0.7,0.8-1.4,1.1-2.3s0.4-1.7,0.4-2.6c0-0.9-0.1-1.7-0.4-2.6c-0.2-0.8-0.6-1.6-1.1-2.3
			c-0.5-0.7-1.1-1.2-1.8-1.6S114.3,11.3,113.3,11.3z"/>
		<path class="st0" d="M113.3,27.2c-1.3,0-2.4-0.2-3.4-0.7c-1-0.5-1.8-1.1-2.5-1.9c-0.7-0.8-1.2-1.7-1.5-2.8
			c-0.3-1.1-0.5-2.2-0.5-3.4s0.2-2.3,0.5-3.4c0.3-1.1,0.9-2,1.5-2.8s1.5-1.4,2.5-1.9c1-0.5,2.1-0.7,3.4-0.7c1.3,0,2.4,0.2,3.4,0.7
			c1,0.5,1.8,1.1,2.5,1.9c0.7,0.8,1.2,1.7,1.5,2.8c0.3,1.1,0.5,2.2,0.5,3.4s-0.2,2.4-0.5,3.4c-0.3,1.1-0.9,2-1.5,2.8
			c-0.7,0.8-1.5,1.4-2.5,1.9C115.7,26.9,114.6,27.2,113.3,27.2z M113.3,9.7c-1.2,0-2.3,0.2-3.3,0.7c-1,0.5-1.8,1.1-2.4,1.9
			c-0.6,0.8-1.1,1.7-1.5,2.7c-0.3,1-0.5,2.2-0.5,3.3c0,1.2,0.2,2.3,0.5,3.3c0.3,1,0.8,2,1.5,2.7c0.6,0.8,1.5,1.4,2.4,1.8
			c0.9,0.4,2.1,0.7,3.3,0.7c1.2,0,2.3-0.2,3.3-0.7c1-0.4,1.8-1.1,2.4-1.8c0.6-0.8,1.1-1.7,1.5-2.7c0.3-1,0.5-2.2,0.5-3.3
			c0-1.2-0.2-2.3-0.5-3.3c-0.3-1-0.8-2-1.5-2.7c-0.6-0.8-1.5-1.4-2.4-1.9C115.7,10,114.6,9.7,113.3,9.7z M113.3,25.5
			c-1,0-1.8-0.2-2.6-0.6c-0.7-0.4-1.4-1-1.8-1.6c-0.5-0.7-0.9-1.4-1.1-2.3c-0.2-0.9-0.4-1.7-0.4-2.6s0.1-1.8,0.4-2.6
			c0.2-0.9,0.6-1.6,1.1-2.3c0.5-0.7,1.1-1.2,1.8-1.6c0.7-0.4,1.6-0.6,2.6-0.6c1,0,1.8,0.2,2.6,0.6c0.7,0.4,1.4,1,1.8,1.6
			c0.5,0.7,0.9,1.4,1.1,2.3c0.2,0.8,0.4,1.7,0.4,2.6c0,0.9-0.1,1.8-0.4,2.6c-0.2,0.9-0.6,1.6-1.1,2.3c-0.5,0.7-1.1,1.2-1.8,1.6
			C115.2,25.3,114.3,25.5,113.3,25.5z M113.3,11.4c-0.9,0-1.8,0.2-2.5,0.6c-0.7,0.4-1.3,0.9-1.8,1.6c-0.5,0.6-0.8,1.4-1.1,2.2
			c-0.2,0.8-0.4,1.7-0.4,2.5s0.1,1.7,0.4,2.5c0.2,0.8,0.6,1.6,1.1,2.2c0.5,0.6,1.1,1.2,1.8,1.6c0.7,0.4,1.5,0.6,2.5,0.6
			c0.9,0,1.8-0.2,2.5-0.6c0.7-0.4,1.3-0.9,1.8-1.6c0.5-0.6,0.8-1.4,1.1-2.2c0.2-0.8,0.4-1.7,0.4-2.5c0-0.9-0.1-1.7-0.4-2.5
			c-0.2-0.8-0.6-1.6-1.1-2.2c-0.5-0.6-1.1-1.2-1.8-1.6C115.1,11.6,114.3,11.4,113.3,11.4z"/>
	</g>
	<g>
		<path class="st0" d="M131.1,9.6c1.3,0,2.4,0.2,3.3,0.7c1,0.5,1.8,1.1,2.4,1.9c0.7,0.8,1.2,1.7,1.5,2.8c0.3,1.1,0.5,2.2,0.5,3.4
			c0,1.2-0.2,2.3-0.5,3.4c-0.3,1.1-0.8,2-1.5,2.8c-0.7,0.8-1.5,1.4-2.4,1.9c-1,0.5-2.1,0.7-3.3,0.7c-1.3,0-2.4-0.2-3.3-0.7
			c-1-0.5-1.8-1.1-2.4-1.9c-0.7-0.8-1.2-1.7-1.5-2.8c-0.3-1.1-0.5-2.2-0.5-3.4c0-1.2,0.2-2.3,0.5-3.4c0.3-1.1,0.8-2,1.5-2.8
			c0.7-0.8,1.5-1.4,2.4-1.9C128.8,9.8,129.9,9.6,131.1,9.6z M131.1,11.3c-1,0-1.8,0.2-2.5,0.6s-1.3,0.9-1.8,1.6
			c-0.5,0.7-0.8,1.4-1.1,2.3s-0.4,1.7-0.4,2.6c0,0.9,0.1,1.7,0.4,2.6s0.6,1.6,1.1,2.3c0.5,0.7,1.1,1.2,1.8,1.6s1.6,0.6,2.5,0.6
			s1.8-0.2,2.5-0.6s1.3-0.9,1.8-1.6c0.5-0.7,0.8-1.4,1.1-2.3s0.4-1.7,0.4-2.6c0-0.9-0.1-1.7-0.4-2.6c-0.2-0.8-0.6-1.6-1.1-2.3
			c-0.5-0.7-1.1-1.2-1.8-1.6S132.1,11.3,131.1,11.3z"/>
		<path class="st0" d="M131.1,27.2c-1.3,0-2.4-0.2-3.4-0.7c-1-0.5-1.8-1.1-2.5-1.9c-0.7-0.8-1.2-1.7-1.5-2.8
			c-0.3-1.1-0.5-2.2-0.5-3.4s0.2-2.3,0.5-3.4c0.3-1.1,0.9-2,1.5-2.8s1.5-1.4,2.5-1.9c1-0.5,2.1-0.7,3.4-0.7c1.3,0,2.4,0.2,3.4,0.7
			c1,0.5,1.8,1.1,2.5,1.9c0.7,0.8,1.2,1.7,1.5,2.8c0.3,1.1,0.5,2.2,0.5,3.4s-0.2,2.4-0.5,3.4c-0.3,1.1-0.9,2-1.5,2.8
			c-0.7,0.8-1.5,1.4-2.5,1.9C133.5,26.9,132.4,27.2,131.1,27.2z M131.1,9.7c-1.2,0-2.3,0.2-3.3,0.7c-1,0.5-1.8,1.1-2.4,1.9
			c-0.6,0.8-1.1,1.7-1.5,2.7c-0.3,1-0.5,2.2-0.5,3.3c0,1.2,0.2,2.3,0.5,3.3c0.3,1,0.8,2,1.5,2.7c0.6,0.8,1.5,1.4,2.4,1.8
			c0.9,0.4,2.1,0.7,3.3,0.7c1.2,0,2.3-0.2,3.3-0.7c1-0.4,1.8-1.1,2.4-1.8c0.6-0.8,1.1-1.7,1.5-2.7c0.3-1,0.5-2.2,0.5-3.3
			c0-1.2-0.2-2.3-0.5-3.3c-0.3-1-0.8-2-1.5-2.7c-0.6-0.8-1.5-1.4-2.4-1.9C133.5,10,132.4,9.7,131.1,9.7z M131.1,25.5
			c-1,0-1.8-0.2-2.6-0.6c-0.7-0.4-1.4-1-1.8-1.6c-0.5-0.7-0.9-1.4-1.1-2.3c-0.2-0.9-0.4-1.7-0.4-2.6s0.1-1.8,0.4-2.6
			c0.2-0.9,0.6-1.6,1.1-2.3c0.5-0.7,1.1-1.2,1.8-1.6c0.7-0.4,1.6-0.6,2.6-0.6c1,0,1.8,0.2,2.6,0.6c0.7,0.4,1.4,1,1.8,1.6
			c0.5,0.7,0.9,1.4,1.1,2.3c0.2,0.8,0.4,1.7,0.4,2.6c0,0.9-0.1,1.8-0.4,2.6c-0.2,0.9-0.6,1.6-1.1,2.3c-0.5,0.7-1.1,1.2-1.8,1.6
			C133,25.3,132.1,25.5,131.1,25.5z M131.1,11.4c-0.9,0-1.8,0.2-2.5,0.6c-0.7,0.4-1.3,0.9-1.8,1.6c-0.5,0.6-0.8,1.4-1.1,2.2
			c-0.2,0.8-0.4,1.7-0.4,2.5s0.1,1.7,0.4,2.5c0.2,0.8,0.6,1.6,1.1,2.2c0.5,0.6,1.1,1.2,1.8,1.6c0.7,0.4,1.5,0.6,2.5,0.6
			c0.9,0,1.8-0.2,2.5-0.6c0.7-0.4,1.3-0.9,1.8-1.6c0.5-0.6,0.8-1.4,1.1-2.2c0.2-0.8,0.4-1.7,0.4-2.5c0-0.9-0.1-1.7-0.4-2.5
			c-0.2-0.8-0.6-1.6-1.1-2.2c-0.5-0.6-1.1-1.2-1.8-1.6C132.9,11.6,132.1,11.4,131.1,11.4z"/>
	</g>
	<g>
		<path class="st0" d="M142,3.8h2v22.8h-2V3.8z"/>
		<path class="st0" d="M144.1,26.7h-2.3V3.6h2.3V26.7z M142.1,26.5h1.8V3.9h-1.8V26.5z"/>
	</g>
	<g>
		<path class="st0" d="M157.7,14.9c0-0.6-0.1-1.2-0.4-1.6s-0.5-0.8-0.9-1.1c-0.4-0.3-0.8-0.5-1.4-0.7s-1.1-0.2-1.6-0.2
			c-0.4,0-0.9,0-1.4,0.1c-0.5,0.1-0.9,0.3-1.3,0.5s-0.7,0.5-0.9,0.9s-0.4,0.8-0.4,1.3c0,0.4,0.1,0.8,0.3,1.1
			c0.2,0.3,0.5,0.6,0.8,0.8c0.3,0.2,0.7,0.4,1.1,0.5s0.8,0.3,1.1,0.3l2.7,0.6c0.6,0.1,1.1,0.2,1.7,0.5c0.6,0.2,1.1,0.5,1.5,0.9
			c0.4,0.4,0.8,0.8,1.1,1.3s0.4,1.2,0.4,1.9c0,0.9-0.2,1.7-0.6,2.3c-0.4,0.6-0.9,1.1-1.6,1.5c-0.6,0.4-1.3,0.7-2.1,0.8
			c-0.8,0.2-1.6,0.3-2.3,0.3c-1.9,0-3.5-0.5-4.7-1.4s-1.9-2.4-2.1-4.4h2c0.1,1.4,0.6,2.4,1.5,3.1c0.9,0.7,2,1,3.4,1
			c0.5,0,1-0.1,1.5-0.2c0.5-0.1,1-0.3,1.5-0.5c0.4-0.3,0.8-0.6,1.1-1c0.3-0.4,0.4-0.9,0.4-1.5c0-0.5-0.1-0.9-0.3-1.2
			c-0.2-0.3-0.5-0.6-0.8-0.8c-0.3-0.2-0.7-0.4-1.2-0.6c-0.4-0.1-0.9-0.3-1.3-0.4l-2.6-0.6c-0.7-0.2-1.3-0.4-1.8-0.6s-1-0.5-1.5-0.8
			s-0.7-0.7-1-1.2c-0.2-0.5-0.4-1.1-0.4-1.8c0-0.8,0.2-1.5,0.6-2.1c0.4-0.6,0.9-1.1,1.5-1.4c0.6-0.4,1.3-0.6,2-0.8
			c0.7-0.2,1.5-0.3,2.2-0.3c0.8,0,1.6,0.1,2.3,0.3c0.7,0.2,1.3,0.5,1.9,1s1,1,1.3,1.7c0.3,0.7,0.5,1.4,0.5,2.3H157.7z"/>
		<path class="st0" d="M153.7,27.2c-2,0-3.6-0.5-4.8-1.4c-1.2-0.9-1.9-2.5-2.1-4.5l0-0.1h2.3l0,0.1c0.1,1.3,0.6,2.3,1.4,3
			c0.9,0.7,2,1,3.3,1c0.5,0,1-0.1,1.5-0.2c0.5-0.1,1-0.3,1.4-0.5c0.4-0.2,0.8-0.6,1.1-0.9c0.3-0.4,0.4-0.8,0.4-1.4
			c0-0.5-0.1-0.9-0.3-1.2c-0.2-0.3-0.5-0.6-0.8-0.8c-0.3-0.2-0.7-0.4-1.1-0.5c-0.4-0.1-0.9-0.3-1.3-0.4l-2.6-0.6
			c-0.7-0.2-1.3-0.4-1.8-0.6c-0.6-0.2-1.1-0.5-1.5-0.9c-0.4-0.3-0.8-0.8-1-1.3c-0.2-0.5-0.4-1.1-0.4-1.8c0-0.9,0.2-1.6,0.6-2.2
			c0.4-0.6,0.9-1.1,1.5-1.5c0.6-0.4,1.3-0.6,2-0.8c1.6-0.4,3.2-0.3,4.6,0.1c0.7,0.2,1.4,0.6,1.9,1c0.6,0.5,1,1,1.3,1.7
			c0.3,0.7,0.5,1.5,0.6,2.4l0,0.1h-2.3l0-0.1c0-0.6-0.1-1.1-0.4-1.6c-0.2-0.4-0.5-0.8-0.9-1.1c-0.4-0.3-0.8-0.5-1.3-0.6
			c-0.9-0.2-1.9-0.3-2.9-0.1c-0.4,0.1-0.9,0.3-1.2,0.5c-0.4,0.2-0.7,0.5-0.9,0.8c-0.2,0.3-0.3,0.8-0.3,1.3c0,0.4,0.1,0.8,0.3,1.1
			c0.2,0.3,0.5,0.5,0.8,0.8c0.3,0.2,0.7,0.4,1.1,0.5c0.4,0.1,0.8,0.2,1.1,0.3l2.7,0.6c0.6,0.1,1.2,0.2,1.7,0.5
			c0.6,0.2,1.1,0.5,1.5,0.9c0.4,0.4,0.8,0.8,1.1,1.4c0.3,0.5,0.4,1.2,0.4,1.9c0,0.9-0.2,1.7-0.6,2.4c-0.4,0.6-0.9,1.2-1.6,1.6
			c-0.6,0.4-1.4,0.7-2.2,0.9C155.3,27.1,154.5,27.2,153.7,27.2z M147.1,21.4c0.2,1.9,0.9,3.3,2,4.2c1.2,0.9,2.7,1.4,4.6,1.4
			c0.8,0,1.5-0.1,2.3-0.3c0.8-0.2,1.5-0.4,2.1-0.8c0.6-0.4,1.1-0.9,1.5-1.5c0.4-0.6,0.6-1.4,0.6-2.2c0-0.7-0.1-1.3-0.4-1.8
			c-0.3-0.5-0.6-1-1-1.3c-0.4-0.4-0.9-0.6-1.5-0.9c-0.6-0.2-1.1-0.4-1.7-0.5l-2.7-0.6c-0.4-0.1-0.7-0.2-1.1-0.3
			c-0.4-0.1-0.8-0.3-1.1-0.5c-0.4-0.2-0.6-0.5-0.9-0.8c-0.2-0.3-0.4-0.7-0.4-1.2c0-0.6,0.1-1,0.4-1.4c0.2-0.4,0.6-0.7,1-0.9
			c0.4-0.2,0.8-0.4,1.3-0.5c1.1-0.2,2.1-0.2,3,0.1c0.5,0.1,1,0.4,1.4,0.7c0.4,0.3,0.7,0.7,1,1.2c0.2,0.4,0.4,1,0.4,1.5h1.8
			c-0.1-0.8-0.2-1.5-0.5-2.2c-0.3-0.6-0.7-1.2-1.3-1.6c-0.5-0.4-1.1-0.8-1.8-1c-1.3-0.4-2.9-0.4-4.4-0.1c-0.7,0.2-1.4,0.4-2,0.8
			c-0.6,0.4-1.1,0.8-1.4,1.4c-0.4,0.6-0.5,1.3-0.5,2.1c0,0.7,0.1,1.3,0.3,1.7c0.2,0.5,0.5,0.9,0.9,1.2c0.4,0.3,0.9,0.6,1.4,0.8
			c0.5,0.2,1.2,0.4,1.8,0.6l2.6,0.6c0.5,0.1,0.9,0.2,1.3,0.4c0.4,0.2,0.8,0.3,1.2,0.6c0.4,0.2,0.6,0.5,0.9,0.9
			c0.2,0.4,0.3,0.8,0.3,1.3c0,0.6-0.2,1.1-0.5,1.5c-0.3,0.4-0.7,0.7-1.1,1c-0.5,0.3-1,0.4-1.5,0.6c-0.5,0.1-1,0.2-1.5,0.2
			c-1.4,0-2.5-0.4-3.5-1.1c-0.9-0.7-1.4-1.7-1.5-3.1H147.1z"/>
	</g>
</g>
</svg>
