<?xml version="1.0" encoding="utf-8"?>
<!-- Generator: Adobe Illustrator 20.1.0, SVG Export Plug-In . SVG Version: 6.00 Build 0)  -->
<svg version="1.1" id="Layer_1" xmlns="http://www.w3.org/2000/svg" xmlns:xlink="http://www.w3.org/1999/xlink" x="0px" y="0px"
	 viewBox="0 0 512 512" style="enable-background:new 0 0 512 512;" xml:space="preserve">
<style type="text/css">
	.st0{fill:#EFC75E;}
	.st1{fill:#D07C40;}
	.st2{fill:#FFFFFF;}
</style>
<path class="st0" d="M227.3,56.7L56.4,228.2c-13.8,13.9-13.8,36.3,0,50.2L223,447.1c17.7,17.7,56.5,17.7,64.8,17.7h141.3
	c19.5,0,35.6-14.2,35.6-33.8l-0.2-149.5c0-23.7-5.9-41.4-23.6-59.1L277.3,56.7C263.5,42.8,241.1,42.8,227.3,56.7z"/>
<path class="st1" d="M346.9,379.8c0-18,14.7-32.7,32.7-32.7c18,0,32.7,14.7,32.7,32.7c0,18-14.7,32.7-32.7,32.7
	C361.5,412.5,346.9,397.9,346.9,379.8z"/>
<path class="st2" d="M399.2,379.8c0,10.8-8.8,19.6-19.6,19.6c-10.8,0-19.6-8.8-19.6-19.6c0-10.8,8.8-19.6,19.6-19.6
	S399.2,369,399.2,379.8z"/>
<path class="st1" d="M163.6,264.8l13.1,17.9l156.9-36.7l-13.2-18.1L163.6,264.8z M218.5,172.9c-2.2,5.1-2.8,10.4-1.6,15.9
	c1.2,5.5,3.9,10.7,8.3,15.7c6.4,7.4,13.6,11.3,21.6,11.8c8,0.5,15.6-2.5,22.8-8.8c7.2-6.3,11.1-13.5,11.7-21.6
	c0.6-8.1-2.3-15.8-8.7-23.2c-4.3-5-9.1-8.5-14.3-10.4c-5.2-1.9-10.5-2.1-15.8-0.5c-5.3,1.5-10.1,4.1-14.3,7.8
	C224,163.3,220.7,167.8,218.5,172.9z M255.9,169.3c2.4-0.3,4.4,0.6,6.2,2.6c1.7,2,2.3,4.2,1.7,6.5c-0.9,3.7-4,7.7-9,12.2
	c-5.1,4.5-9.5,6.9-13.2,7.4c-2.4,0.3-4.4-0.5-6.2-2.5c-1.7-2-2.3-4.2-1.7-6.6c0.9-3.6,3.9-7.7,9-12.2
	C247.8,172.2,252.2,169.7,255.9,169.3z M218.4,316.9c-2.3,5.1-2.8,10.3-1.6,15.8c1.2,5.5,3.9,10.7,8.2,15.6
	c6.5,7.4,13.7,11.3,21.8,11.8c8.1,0.4,15.7-2.5,23-8.8c7.2-6.3,11.2-13.5,11.8-21.5c0.7-8-2.3-15.7-8.7-23.1
	c-4.3-5-9.1-8.4-14.4-10.2c-5.3-1.9-10.6-2-15.9-0.5c-5.3,1.5-10.1,4.1-14.4,7.9C223.9,307.5,220.7,311.8,218.4,316.9z M256,313.4
	c2.4-0.3,4.5,0.5,6.2,2.5c1.7,2,2.3,4.2,1.8,6.5c-1,3.7-4,7.7-9.1,12.2c-5.1,4.4-9.6,6.9-13.3,7.3c-2.4,0.3-4.5-0.6-6.2-2.6
	c-1.8-2-2.3-4.1-1.7-6.4c0.9-3.6,3.9-7.6,9-12.1C247.9,316.3,252.3,313.8,256,313.4z"/>
</svg>
