<?xml version="1.0" encoding="utf-8"?>
<!-- Generator: Adobe Illustrator 20.1.0, SVG Export Plug-In . SVG Version: 6.00 Build 0)  -->
<svg version="1.1" id="Capa_1" xmlns="http://www.w3.org/2000/svg" xmlns:xlink="http://www.w3.org/1999/xlink" x="0px" y="0px"
	 viewBox="0 0 512 512" style="enable-background:new 0 0 512 512;" xml:space="preserve">
<style type="text/css">
	.st0{fill:#0000CD;}
</style>
<g>
	<path class="st0" d="M496,360.7l-12.7-2.4c-6-1.1-10.7-5.1-12.9-10.7c-2.2-5.7-1.4-11.7,2.2-16.6l8-10.9c2.6-3.5,2.2-8.4-0.9-11.5
		l-17.3-17.3c-3-3-7.7-3.4-11.2-1.1l-10.7,7.3c-5,3.4-11.1,4-16.7,1.5c-5.6-2.4-9.3-7.3-10.2-13.3l-2.1-13.4
		c-0.7-4.3-4.4-7.5-8.7-7.5h-24.5c-4.2,0-7.9,3-8.7,7.2l-3.2,16.5c-1.1,5.8-4.9,10.5-10.4,12.8c-5.5,2.3-11.5,1.7-16.4-1.7
		l-13.9-9.4c-3.5-2.4-8.2-1.9-11.2,1.1l-17.3,17.3c-3.1,3.1-3.5,7.9-0.9,11.5l8,10.9c3.6,4.9,4.4,11,2.2,16.6
		c-2.2,5.7-6.9,9.6-12.9,10.7l-12.7,2.4c-4.1,0.8-7.2,4.4-7.2,8.7v24.5c0,4.4,3.2,8.1,7.5,8.7l13.4,2.1c6,0.9,10.9,4.7,13.3,10.2
		c2.4,5.6,1.9,11.7-1.5,16.7l-7.3,10.7c-2.4,3.5-1.9,8.2,1.1,11.2l17.3,17.3c3.1,3.1,7.9,3.5,11.5,0.9l10.9-8
		c4.9-3.6,11-4.4,16.6-2.2c5.7,2.2,9.6,6.9,10.7,12.9l2.4,12.7c0.8,4.1,4.4,7.2,8.7,7.2h24.5c4.4,0,8.1-3.2,8.7-7.5l1.4-9.4
		c0.9-6.1,4.9-11.1,10.5-13.4c5.7-2.3,12-1.6,17,2l7.7,5.6c3.5,2.6,8.4,2.2,11.5-0.9l17.3-17.3c3-3,3.4-7.7,1.1-11.2l-7.3-10.7
		c-3.4-5-4-11.1-1.5-16.7c2.4-5.6,7.3-9.3,13.3-10.2l13.4-2.1c4.3-0.7,7.5-4.4,7.5-8.7v-24.5C503.2,365.2,500.2,361.5,496,360.7z
		 M485.5,386.3l-5.9,0.9c-12,1.8-22,9.6-26.8,20.6c-4.8,11.1-3.7,23.7,3.1,33.7l3.2,4.7l-6.8,6.8l-1.6-1.1
		c-10-7.3-22.7-8.8-34.2-4.1c-11.4,4.7-19.4,14.8-21.2,27.1l-0.3,1.9h-9.6l-1.1-5.6c-2.3-11.9-10.4-21.6-21.6-26
		c-11.3-4.4-23.8-2.8-33.5,4.4l-4.8,3.5l-6.8-6.8l3.2-4.7c6.8-10,7.9-22.6,3.1-33.7c-4.8-11.1-14.9-18.8-26.8-20.6l-5.9-0.9v-9.6
		l5.6-1.1c11.9-2.3,21.6-10.4,26-21.6c4.4-11.3,2.8-23.8-4.4-33.5l-3.5-4.8l6.8-6.8l7.8,5.3c9.8,6.6,22.2,7.9,33.1,3.4
		c10.9-4.5,18.8-14.2,21-25.8l1.8-9.3h9.6l0.9,5.9c1.8,12,9.6,22,20.6,26.8c11.1,4.8,23.7,3.7,33.7-3.1l4.7-3.2l6.8,6.8l-3.5,4.8
		c-7.2,9.7-8.8,22.3-4.4,33.5c4.4,11.2,14.1,19.3,26,21.6l5.6,1.1V386.3z"/>
	<path class="st0" d="M388.4,335.4c-24.3,0-44.1,19.8-44.1,44.1s19.8,44.1,44.1,44.1s44.1-19.8,44.1-44.1S412.8,335.4,388.4,335.4z
		 M388.4,406.1c-14.6,0-26.5-11.9-26.5-26.5s11.9-26.5,26.5-26.5s26.5,11.9,26.5,26.5S403,406.1,388.4,406.1z"/>
	<path class="st0" d="M190.4,137.4c0-27.1-22.1-49.2-49.2-49.2s-49.2,22.1-49.2,49.2c0,27.1,22.1,49.2,49.2,49.2
		S190.4,164.5,190.4,137.4z M109.7,137.4c0-17.4,14.1-31.5,31.5-31.5s31.5,14.1,31.5,31.5s-14.1,31.5-31.5,31.5
		S109.7,154.8,109.7,137.4z"/>
	<path class="st0" d="M55.2,341.3c1.7,2,4.2,3,6.6,3c2.1,0,4.2-0.7,5.8-2.2l144-126.8l64.6,64.6c3.5,3.5,9,3.5,12.5,0
		c3.5-3.5,3.5-9,0-12.5l-16.1-16.1l81-88.8l99.4,91.1c3.6,3.3,9.2,3,12.5-0.5c3.3-3.6,3.1-9.2-0.5-12.5l-105.9-97.1
		c-1.7-1.6-4.1-2.4-6.4-2.3c-2.3,0.1-4.6,1.1-6.1,2.9l-86.5,94.7l-41.9-41.9c-3.3-3.3-8.6-3.5-12.1-0.4L56,328.8
		C52.3,332,52,337.6,55.2,341.3z"/>
	<path class="st0" d="M503.2,17.7H8.8c-4.9,0-8.8,3.9-8.8,8.8v388.4c0,4.9,3.9,8.8,8.8,8.8h220.7c4.9,0,8.8-3.9,8.8-8.8
		c0-4.9-3.9-8.8-8.8-8.8H17.7V35.3h476.7v247.2c0,4.9,3.9,8.8,8.8,8.8c4.9,0,8.8-3.9,8.8-8.8v-256C512,21.6,508.1,17.7,503.2,17.7z"
		/>
</g>
</svg>
