<?xml version="1.0" encoding="utf-8"?>
<!-- Generator: Adobe Illustrator 20.1.0, SVG Export Plug-In . SVG Version: 6.00 Build 0)  -->
<svg version="1.1" id="Layer_1" xmlns="http://www.w3.org/2000/svg" xmlns:xlink="http://www.w3.org/1999/xlink" x="0px" y="0px"
	 viewBox="0 0 44 44" style="enable-background:new 0 0 44 44;" xml:space="preserve">
<style type="text/css">
	.st0{display:none;}
	.st1{display:inline;}
	.st2{fill:#157DFB;}
	.st3{fill:#000066;}
</style>
<g id="Capa_1" class="st0">
	<g class="st1">
		<g>
			<path class="st2" d="M-418.7,271.9c1.4,0,2.7-1.2,2.7-2.6s-1.3-2.7-2.7-2.7c-1.4,0-2.6,1.3-2.6,2.7S-420.1,271.9-418.7,271.9z"/>
			<path class="st2" d="M-418.7,283.6c1.4,0,2.7-1.2,2.7-2.6s-1.3-2.6-2.7-2.6c-1.4,0-2.6,1.2-2.6,2.6
				C-421.3,282.4-420.1,283.6-418.7,283.6z"/>
			<path class="st2" d="M-428.1,290.4h-23.4c-1.3,0-2.4,1-2.4,2.4c0,1.3,1.1,2.4,2.4,2.4h23.4c1.3,0,2.4-1.1,2.4-2.4
				C-425.7,291.4-426.8,290.4-428.1,290.4z"/>
			<path class="st2" d="M-418.7,295.4c1.4,0,2.7-1.3,2.7-2.7c0-1.4-1.3-2.6-2.7-2.6c-1.4,0-2.6,1.2-2.6,2.6
				C-421.3,294.1-420.1,295.4-418.7,295.4z"/>
			<path class="st2" d="M-451.5,283.5h23.4c1.3,0,2.4-1.1,2.4-2.4s-1.1-2.4-2.4-2.4h-23.4c-1.3,0-2.4,1.1-2.4,2.4
				C-454,282.4-452.9,283.5-451.5,283.5z"/>
			<path class="st2" d="M-451.5,271.8h23.4c1.3,0,2.4-1.1,2.4-2.4s-1.1-2.4-2.4-2.4h-23.4c-1.3,0-2.4,1.1-2.4,2.4
				C-454,270.7-452.9,271.8-451.5,271.8z"/>
		</g>
	</g>
</g>
<g id="Layer_2">
	<path class="st3" d="M30.4,35.1H5.1c-0.9,0-1.6-0.7-1.6-1.6l0,0c0-0.9,0.7-1.6,1.6-1.6h25.3c0.9,0,1.6,0.7,1.6,1.6l0,0
		C32,34.4,31.3,35.1,30.4,35.1z"/>
	<path class="st3" d="M30.4,23.6H5.1c-0.9,0-1.6-0.7-1.6-1.6l0,0c0-0.9,0.7-1.6,1.6-1.6h25.3c0.9,0,1.6,0.7,1.6,1.6l0,0
		C32,22.9,31.3,23.6,30.4,23.6z"/>
	<path class="st3" d="M30.4,12.1H5.1c-0.9,0-1.6-0.7-1.6-1.6l0,0c0-0.9,0.7-1.6,1.6-1.6h25.3c0.9,0,1.6,0.7,1.6,1.6l0,0
		C32,11.4,31.3,12.1,30.4,12.1z"/>
	<path class="st3" d="M39.2,35.1h-0.3c-0.7,0-1.3-0.6-1.3-1.3v-0.5c0-0.7,0.6-1.3,1.3-1.3h0.3c0.7,0,1.3,0.6,1.3,1.3v0.5
		C40.5,34.5,39.9,35.1,39.2,35.1z"/>
	<path class="st3" d="M39.2,23.6h-0.3c-0.7,0-1.3-0.6-1.3-1.3v-0.5c0-0.7,0.6-1.3,1.3-1.3h0.3c0.7,0,1.3,0.6,1.3,1.3v0.5
		C40.5,23,39.9,23.6,39.2,23.6z"/>
	<path class="st3" d="M39.1,12.1h-0.2c-0.8,0-1.4-0.6-1.4-1.4v-0.4c0-0.8,0.6-1.4,1.4-1.4h0.2c0.8,0,1.4,0.6,1.4,1.4v0.4
		C40.5,11.5,39.9,12.1,39.1,12.1z"/>
</g>
</svg>
