<?xml version="1.0" encoding="utf-8"?>
<!-- Generator: Adobe Illustrator 20.1.0, SVG Export Plug-In . SVG Version: 6.00 Build 0)  -->
<svg version="1.1" id="iconReport1" xmlns="http://www.w3.org/2000/svg" xmlns:xlink="http://www.w3.org/1999/xlink" x="0px"
	 y="0px" viewBox="0 0 64 54.3" style="enable-background:new 0 0 64 54.3;" xml:space="preserve">
<style type="text/css">
	.st0{fill:#E2574C;}
	.st1{fill:#26A6D1;}
	.st2{fill:#BF392B;}
</style>
<g>
	<path class="st0" d="M56,52.9H8c-3.4,0-6.2-2.8-6.2-6.2V19.3c0-3.4,2.8-6.2,6.2-6.2h48c3.4,0,6.2,2.8,6.2,6.2v27.5
		C62.2,50.2,59.4,52.9,56,52.9z M8,16.1c-1.7,0-3.2,1.4-3.2,3.2v27.5c0,1.7,1.4,3.2,3.2,3.2h48c1.7,0,3.2-1.4,3.2-3.2V19.3
		c0-1.7-1.4-3.2-3.2-3.2H8z"/>
</g>
<path class="st1" d="M9.2,10.7h3.3V1.3H9.2V10.7z M15.7,10.7H19V1.3h-3.3V10.7z M22.2,10.7h6.5V1.3h-6.5V10.7z M33.6,10.7h3.3V1.3
	h-3.3V10.7z M40.1,10.7H45V1.3h-4.9V10.7z M48.3,1.3v9.3h6.5V1.3H48.3z"/>
<path class="st2" d="M9.2,47.5h3.3V18.3H9.2V47.5z M15.7,47.5H19V18.3h-3.3V47.5z M22.2,47.5h6.5V18.3h-6.5V47.5z M33.6,47.5h3.3
	V18.3h-3.3V47.5z M40.1,47.5H45V18.3h-4.9V47.5z M48.3,18.3v29.2h6.5V18.3H48.3z"/>
</svg>
