<?xml version="1.0" encoding="utf-8"?>
<!-- Generator: Adobe Illustrator 20.1.0, SVG Export Plug-In . SVG Version: 6.00 Build 0)  -->
<svg version="1.1" id="Layer_1" xmlns="http://www.w3.org/2000/svg" xmlns:xlink="http://www.w3.org/1999/xlink" x="0px" y="0px"
	 viewBox="0 0 512 512" style="enable-background:new 0 0 512 512;" xml:space="preserve">
<style type="text/css">
	.st0{fill:#E4E7E7;}
	.st1{fill:#2EA9D3;}
	.st2{fill:#CCD0D2;}
	.st3{fill:#2998BD;}
	.st4{fill:#CBB292;}
	.st5{fill:#E2574C;}
	.st6{fill:#CB4E44;}
	.st7{fill:#CDCFCF;}
	.st8{fill:none;}
</style>
<g>
	<g>
		<g>
			<path class="st0" d="M409.3,199.4h-7c-27.1,0-49-21.9-49-49c0,27.1-21.9,49-49,49s-49-21.9-49-49c0,27.1-21.9,49-49,49
				s-49-21.9-49-49c0,27.1-21.9,49-49,49h-7c-27.1,0-49-21.9-49-49v314.9h405.9V150.4C458.3,177.5,436.3,199.4,409.3,199.4z"/>
		</g>
	</g>
	<g>
		<rect x="80.4" y="234.4" class="st1" width="216.9" height="181.9"/>
		<path class="st2" d="M304.3,423.3H73.4V227.4h230.9V423.3z M87.4,409.3h202.9V241.4H87.4V409.3z"/>
	</g>
	<path class="st3" d="M115.4,297.3c-1.8,0-3.6-0.7-4.9-2.1c-2.7-2.7-2.7-7.2,0-9.9l28-28c2.7-2.7,7.2-2.7,9.9,0
		c2.7,2.7,2.7,7.2,0,9.9l-28,28C119,296.7,117.2,297.3,115.4,297.3z"/>
	<path class="st3" d="M115.4,332.3c-1.8,0-3.6-0.7-4.9-2.1c-2.7-2.7-2.7-7.2,0-9.9l14-14c2.7-2.7,7.2-2.7,9.9,0s2.7,7.2,0,9.9
		l-14,14C119,331.6,117.2,332.3,115.4,332.3z"/>
	<path class="st3" d="M143.4,304.3c-1.8,0-3.6-0.8-5-2c-1.3-1.3-2-3.1-2-5c0-1.8,0.8-3.6,2-5c2.6-2.6,7.3-2.6,9.9,0
		c1.3,1.3,2,3.1,2,5c0,1.8-0.8,3.6-2,5C147,303.6,145.2,304.3,143.4,304.3z"/>
	<path class="st3" d="M157.4,290.4c-1.8,0-3.6-0.7-4.9-2.1c-2.7-2.7-2.7-7.2,0-9.9l21-21c2.7-2.7,7.2-2.7,9.9,0
		c2.7,2.7,2.7,7.2,0,9.9l-21,21C161,289.7,159.2,290.4,157.4,290.4z"/>
	<path class="st3" d="M115.4,367.3c-1.8,0-3.6-0.7-4.9-2.1c-2.7-2.7-2.7-7.2,0-9.9l63-63c2.7-2.7,7.2-2.7,9.9,0
		c2.7,2.7,2.7,7.2,0,9.9l-63,63C119,366.6,117.2,367.3,115.4,367.3z"/>
	<path class="st3" d="M192.4,290.4c-1.9,0-3.7-0.8-5-2.1c-1.3-1.3-2-3.1-2-4.9c0-1.8,0.8-3.6,2-5c2.6-2.6,7.3-2.6,9.9,0
		c1.3,1.3,2,3.1,2,5s-0.8,3.6-2,5C196,289.6,194.2,290.4,192.4,290.4z"/>
	<path class="st4" d="M108.4,444.3h-7c-3.9,0-7-3.1-7-7c0-3.9,3.1-7,7-7h7c3.9,0,7,3.1,7,7C115.4,441.2,112.3,444.3,108.4,444.3z"/>
	<path class="st4" d="M80.4,444.3h-7c-3.9,0-7-3.1-7-7c0-3.9,3.1-7,7-7h7c3.9,0,7,3.1,7,7C87.4,441.2,84.3,444.3,80.4,444.3z"/>
	<path class="st4" d="M129.4,465.3h-7c-3.9,0-7-3.1-7-7c0-3.9,3.1-7,7-7h7c3.9,0,7,3.1,7,7C136.4,462.2,133.3,465.3,129.4,465.3z"/>
	<path class="st4" d="M73.4,465.3h-7c-3.9,0-7-3.1-7-7c0-3.9,3.1-7,7-7h7c3.9,0,7,3.1,7,7C80.4,462.2,77.3,465.3,73.4,465.3z"/>
	<path class="st4" d="M101.4,465.3h-7c-3.9,0-7-3.1-7-7c0-3.9,3.1-7,7-7h7c3.9,0,7,3.1,7,7C108.4,462.2,105.3,465.3,101.4,465.3z"/>
	<path class="st4" d="M164.4,444.3h-7c-3.9,0-7-3.1-7-7c0-3.9,3.1-7,7-7h7c3.9,0,7,3.1,7,7C171.4,441.2,168.3,444.3,164.4,444.3z"/>
	<path class="st4" d="M136.4,444.3h-7c-3.9,0-7-3.1-7-7c0-3.9,3.1-7,7-7h7c3.9,0,7,3.1,7,7C143.4,441.2,140.3,444.3,136.4,444.3z"/>
	<path class="st4" d="M157.4,465.3h-7c-3.9,0-7-3.1-7-7c0-3.9,3.1-7,7-7h7c3.9,0,7,3.1,7,7C164.4,462.2,161.3,465.3,157.4,465.3z"/>
	<path class="st4" d="M220.4,444.3h-7c-3.9,0-7-3.1-7-7c0-3.9,3.1-7,7-7h7c3.9,0,7,3.1,7,7C227.4,441.2,224.2,444.3,220.4,444.3z"/>
	<path class="st4" d="M192.4,444.3h-7c-3.9,0-7-3.1-7-7c0-3.9,3.1-7,7-7h7c3.9,0,7,3.1,7,7C199.4,441.2,196.2,444.3,192.4,444.3z"/>
	<path class="st4" d="M241.4,465.3h-7c-3.9,0-7-3.1-7-7c0-3.9,3.1-7,7-7h7c3.9,0,7,3.1,7,7C248.4,462.2,245.2,465.3,241.4,465.3z"/>
	<path class="st4" d="M185.4,465.3h-7c-3.9,0-7-3.1-7-7c0-3.9,3.1-7,7-7h7c3.9,0,7,3.1,7,7C192.4,462.2,189.2,465.3,185.4,465.3z"/>
	<path class="st4" d="M213.4,465.3h-7c-3.9,0-7-3.1-7-7c0-3.9,3.1-7,7-7h7c3.9,0,7,3.1,7,7C220.4,462.2,217.2,465.3,213.4,465.3z"/>
	<path class="st4" d="M276.3,444.3h-7c-3.9,0-7-3.1-7-7c0-3.9,3.1-7,7-7h7c3.9,0,7,3.1,7,7C283.3,441.2,280.2,444.3,276.3,444.3z"/>
	<path class="st4" d="M248.4,444.3h-7c-3.9,0-7-3.1-7-7c0-3.9,3.1-7,7-7h7c3.9,0,7,3.1,7,7C255.4,441.2,252.2,444.3,248.4,444.3z"/>
	<path class="st4" d="M269.3,465.3h-7c-3.9,0-7-3.1-7-7c0-3.9,3.1-7,7-7h7c3.9,0,7,3.1,7,7C276.3,462.2,273.2,465.3,269.3,465.3z"/>
	<path class="st4" d="M304.3,444.3h-7c-3.9,0-7-3.1-7-7c0-3.9,3.1-7,7-7h7c3.9,0,7,3.1,7,7C311.3,441.2,308.2,444.3,304.3,444.3z"/>
	<path class="st4" d="M297.3,465.3h-7c-3.9,0-7-3.1-7-7c0-3.9,3.1-7,7-7h7c3.9,0,7,3.1,7,7C304.3,462.2,301.2,465.3,297.3,465.3z"/>
	<path class="st5" d="M171.4,59.4h-20.8h-0.2v0c-45.5,0.1-85.1,30.6-97.2,74.4c-1.5,5.4,0.6,2.5,1.9,2.5h95.3h7h98v-77H171.4z"/>
	<path class="st0" d="M367.3,136.4h88.5c1.2,0,2.8,1.2,1.8-2.4l0-0.2c-11.3-41.6-47.7-71.1-90.2-74.1v-0.3h-7.2h-20.8h-84v77h98
		H367.3z"/>
	<path class="st0" d="M255.4,136.4h-98l0,0c8.1-44.6,46.9-77,92.2-77h5.7V136.4z"/>
	<path class="st5" d="M353.3,136.4h-98v-77h5.7C306.4,59.4,345.2,91.8,353.3,136.4L353.3,136.4z"/>
	<path class="st6" d="M108.4,199.4h-7c-27.1,0-49-21.9-49-49v-12.9c0-0.6,0.5-1.1,1.1-1.1h103.8v14
		C157.4,177.5,135.5,199.4,108.4,199.4z"/>
	<path class="st7" d="M206.4,199.4L206.4,199.4c-27.1,0-49-21.9-49-49v-14h98v14C255.4,177.5,233.4,199.4,206.4,199.4z"/>
	<path class="st6" d="M304.3,199.4L304.3,199.4c-27.1,0-49-21.9-49-49v-14h98v14C353.3,177.5,331.4,199.4,304.3,199.4z"/>
	<path class="st7" d="M409.3,199.4h-7c-27.1,0-49-21.9-49-49v-14h103.8c0.6,0,1.1,0.5,1.1,1.1v12.9
		C458.3,177.5,436.3,199.4,409.3,199.4z"/>
	<g>
		<path class="st1" d="M430.3,458.3h-105V279.9c0-29,23.5-52.5,52.5-52.5l0,0c29,0,52.5,23.5,52.5,52.5V458.3z"/>
		<path class="st2" d="M437.3,465.3h-119V279.9c0-32.8,26.7-59.5,59.5-59.5s59.5,26.7,59.5,59.5V465.3z M332.3,451.3h91V279.9
			c0-25.1-20.4-45.5-45.5-45.5c-25.1,0-45.5,20.4-45.5,45.5V451.3z"/>
	</g>
	<g>
		<line class="st8" x1="325.3" y1="360.3" x2="430.3" y2="360.3"/>
		<rect x="325.3" y="353.3" class="st4" width="105" height="14"/>
	</g>
</g>
</svg>
